<svg width="91" height="41" viewBox="0 0 91 41" fill="none" xmlns="http://www.w3.org/2000/svg">
<rect y="11" width="91" height="28" fill="#F4B728"/>
<path d="M24.5832 19.4832L21.6836 18.0869C21.5198 18.0081 21.3356 17.9821 21.1564 18.0126C20.9772 18.0431 20.8119 18.1285 20.6835 18.2571L11.1913 26.9116C11.131 26.9666 11.0828 27.0336 11.0499 27.1083C11.0169 27.1829 11 27.2637 11 27.3453C11.0001 27.4269 11.0172 27.5076 11.0502 27.5823C11.0833 27.6569 11.1316 27.7238 11.1919 27.7787L11.9673 28.4836C12.0686 28.5757 12.1989 28.6294 12.3356 28.6355C12.4724 28.6416 12.607 28.5996 12.7161 28.5169L24.1468 19.8452C24.5303 19.5543 25.0811 19.8278 25.0811 20.3092V20.2755C25.0811 20.11 25.0344 19.9478 24.9463 19.8076C24.8582 19.6674 24.7324 19.555 24.5832 19.4832Z" fill="black"/>
<g filter="url(#filter0_d_6_4)">
<path d="M24.5832 30.517L21.6836 31.913C21.5198 31.9919 21.3356 32.0179 21.1564 31.9874C20.9772 31.957 20.812 31.8716 20.6834 31.743L11.1913 23.0884C11.131 23.0334 11.0828 22.9664 11.0499 22.8918C11.0169 22.8171 10.9999 22.7363 11 22.6547C11.0001 22.5731 11.0172 22.4924 11.0502 22.4178C11.0833 22.3431 11.1315 22.2762 11.1919 22.2213L11.9673 21.5165C12.0685 21.4244 12.1989 21.3706 12.3356 21.3645C12.4724 21.3584 12.607 21.4004 12.7161 21.4832L24.1468 30.1547C24.5303 30.4457 25.0811 30.1722 25.0811 29.6909V29.7245C25.0811 29.8901 25.0344 30.0523 24.9463 30.1925C24.8582 30.3326 24.7324 30.4451 24.5832 30.517Z" fill="black"/>
</g>
<g filter="url(#filter1_d_6_4)">
<path d="M21.6837 31.9134C21.5199 31.9921 21.3356 32.0181 21.1564 31.9875C20.9772 31.957 20.812 31.8716 20.6834 31.7431C21.008 32.0676 21.563 31.8377 21.563 31.3787V18.6212C21.563 18.1622 21.008 17.9323 20.6834 18.2569C20.812 18.1284 20.9772 18.043 21.1564 18.0124C21.3356 17.9819 21.5199 18.0079 21.6837 18.0866L24.5827 19.4809C24.732 19.5527 24.858 19.6652 24.9462 19.8054C25.0343 19.9457 25.0811 20.1079 25.0811 20.2736V29.7266C25.0811 29.8923 25.0343 30.0545 24.9462 30.1948C24.858 30.335 24.732 30.4475 24.5827 30.5193L21.6837 31.9134Z" fill="black"/>
</g>
<path style="mix-blend-mode:overlay" opacity="0.25" fill-rule="evenodd" clip-rule="evenodd" d="M20.9792 31.9403C21.0912 31.9839 21.2109 32.004 21.331 31.9994C21.4511 31.9948 21.5689 31.9655 21.6772 31.9134L24.5745 30.5193C24.7237 30.4474 24.8496 30.3349 24.9377 30.1947C25.0259 30.0544 25.0726 29.8922 25.0725 29.7266V20.2736C25.0726 20.1079 25.0259 19.9457 24.9377 19.8054C24.8496 19.6652 24.7237 19.5527 24.5745 19.4809L21.6772 18.0869C21.5135 18.0081 21.3293 17.9822 21.1502 18.0127C20.9711 18.0432 20.8059 18.1286 20.6775 18.2571L15.1309 23.3173L12.7151 21.4835C12.6061 21.4007 12.4716 21.3587 12.3349 21.3648C12.1982 21.3709 12.0679 21.4246 11.9667 21.5167L11.1918 22.2215C11.1315 22.2764 11.0832 22.3434 11.0502 22.418C11.0172 22.4926 11.0001 22.5733 11 22.655C10.9999 22.7366 11.0169 22.8173 11.0498 22.892C11.0827 22.9667 11.1309 23.0337 11.1912 23.0887L13.2863 25.0001L11.1913 26.9115C11.131 26.9665 11.0828 27.0335 11.0499 27.1082C11.017 27.1829 11 27.2636 11.0001 27.3453C11.0001 27.4269 11.0172 27.5076 11.0503 27.5823C11.0833 27.6569 11.1316 27.7238 11.1919 27.7787L11.9668 28.4836C12.068 28.5757 12.1983 28.6294 12.335 28.6355C12.4717 28.6416 12.6062 28.5996 12.7152 28.5169L15.1312 26.6829L20.6777 31.7431C20.7635 31.829 20.8661 31.8962 20.9792 31.9403ZM21.5566 21.8054L17.348 25.0001L21.5566 28.1946V21.8054Z" fill="url(#paint0_linear_6_4)"/>
<path d="M33.4348 21.2727L35.5442 27.9034H35.6252L37.7388 21.2727H39.7843L36.7757 30H34.3979L31.3851 21.2727H33.4348ZM45.5691 23.7827C45.535 23.4389 45.3887 23.1719 45.1301 22.9815C44.8716 22.7912 44.5208 22.696 44.0776 22.696C43.7765 22.696 43.5222 22.7386 43.3148 22.8239C43.1074 22.9062 42.9483 23.0213 42.8375 23.169C42.7296 23.3168 42.6756 23.4844 42.6756 23.6719C42.6699 23.8281 42.7026 23.9645 42.7736 24.081C42.8475 24.1974 42.9483 24.2983 43.0762 24.3835C43.204 24.4659 43.3517 24.5384 43.5194 24.6009C43.687 24.6605 43.8659 24.7116 44.0563 24.7543L44.8404 24.9418C45.2211 25.027 45.5705 25.1406 45.8887 25.2827C46.2069 25.4247 46.4824 25.5994 46.7154 25.8068C46.9483 26.0142 47.1287 26.2585 47.2566 26.5398C47.3873 26.821 47.454 27.1435 47.4569 27.5071C47.454 28.0412 47.3176 28.5043 47.0478 28.8963C46.7807 29.2855 46.3944 29.5881 45.8887 29.804C45.3858 30.017 44.7793 30.1236 44.0691 30.1236C43.3645 30.1236 42.7509 30.0156 42.2282 29.7997C41.7083 29.5838 41.302 29.2642 41.0094 28.8409C40.7196 28.4148 40.5676 27.8878 40.5534 27.2599H42.339C42.3588 27.5526 42.4426 27.7969 42.5904 27.9929C42.7409 28.1861 42.9412 28.3324 43.1912 28.4318C43.4441 28.5284 43.7296 28.5767 44.0478 28.5767C44.3603 28.5767 44.6316 28.5312 44.8617 28.4403C45.0946 28.3494 45.275 28.223 45.4029 28.0611C45.5307 27.8991 45.5946 27.7131 45.5946 27.5028C45.5946 27.3068 45.5364 27.142 45.4199 27.0085C45.3063 26.875 45.1387 26.7614 44.9171 26.6676C44.6983 26.5739 44.4299 26.4886 44.1117 26.4119L43.1614 26.1733C42.4256 25.9943 41.8446 25.7145 41.4185 25.3338C40.9924 24.9531 40.7807 24.4403 40.7836 23.7955C40.7807 23.267 40.9213 22.8054 41.2054 22.4105C41.4924 22.0156 41.8858 21.7074 42.3858 21.4858C42.8858 21.2642 43.454 21.1534 44.0904 21.1534C44.7381 21.1534 45.3034 21.2642 45.7864 21.4858C46.2722 21.7074 46.65 22.0156 46.9199 22.4105C47.1898 22.8054 47.329 23.2628 47.3375 23.7827H45.5691ZM59.1756 24.3281H57.3091C57.275 24.0866 57.2054 23.8722 57.1003 23.6847C56.9952 23.4943 56.8603 23.3324 56.6955 23.1989C56.5307 23.0653 56.3404 22.9631 56.1245 22.892C55.9114 22.821 55.6799 22.7855 55.4299 22.7855C54.9782 22.7855 54.5847 22.8977 54.2495 23.1222C53.9142 23.3437 53.6543 23.6676 53.4696 24.0938C53.285 24.517 53.1926 25.0312 53.1926 25.6364C53.1926 26.2585 53.285 26.7812 53.4696 27.2045C53.6571 27.6278 53.9185 27.9474 54.2537 28.1634C54.589 28.3793 54.9767 28.4872 55.4171 28.4872C55.6642 28.4872 55.8929 28.4545 56.1032 28.3892C56.3162 28.3239 56.5051 28.2287 56.6699 28.1037C56.8347 27.9759 56.9711 27.821 57.079 27.6392C57.1898 27.4574 57.2665 27.25 57.3091 27.017L59.1756 27.0256C59.1273 27.4261 59.0066 27.8125 58.8134 28.1847C58.623 28.554 58.3659 28.8849 58.0421 29.1776C57.7211 29.4673 57.3375 29.6974 56.8915 29.8679C56.4483 30.0355 55.9469 30.1193 55.3873 30.1193C54.6088 30.1193 53.9128 29.9432 53.2992 29.5909C52.6884 29.2386 52.2054 28.7287 51.8503 28.0611C51.498 27.3935 51.3219 26.5852 51.3219 25.6364C51.3219 24.6847 51.5009 23.875 51.8588 23.2074C52.2168 22.5398 52.7026 22.0312 53.3162 21.6818C53.9299 21.3295 54.6202 21.1534 55.3873 21.1534C55.8929 21.1534 56.3617 21.2244 56.7935 21.3665C57.2282 21.5085 57.6131 21.7159 57.9483 21.9886C58.2836 22.2585 58.5563 22.5895 58.7665 22.9815C58.9796 23.3736 59.1159 23.8224 59.1756 24.3281ZM63.4221 30.1278C62.7601 30.1278 62.1877 29.9872 61.7047 29.706C61.2246 29.4219 60.8539 29.027 60.5925 28.5213C60.3311 28.0128 60.2005 27.4233 60.2005 26.7528C60.2005 26.0767 60.3311 25.4858 60.5925 24.9801C60.8539 24.4716 61.2246 24.0767 61.7047 23.7955C62.1877 23.5114 62.7601 23.3693 63.4221 23.3693C64.084 23.3693 64.655 23.5114 65.1351 23.7955C65.6181 24.0767 65.9902 24.4716 66.2516 24.9801C66.513 25.4858 66.6436 26.0767 66.6436 26.7528C66.6436 27.4233 66.513 28.0128 66.2516 28.5213C65.9902 29.027 65.6181 29.4219 65.1351 29.706C64.655 29.9872 64.084 30.1278 63.4221 30.1278ZM63.4306 28.7216C63.7317 28.7216 63.9831 28.6364 64.1848 28.4659C64.3865 28.2926 64.5385 28.0568 64.6408 27.7585C64.7459 27.4602 64.7985 27.1207 64.7985 26.7401C64.7985 26.3594 64.7459 26.0199 64.6408 25.7216C64.5385 25.4233 64.3865 25.1875 64.1848 25.0142C63.9831 24.8409 63.7317 24.7543 63.4306 24.7543C63.1266 24.7543 62.8709 24.8409 62.6635 25.0142C62.459 25.1875 62.3042 25.4233 62.199 25.7216C62.0968 26.0199 62.0456 26.3594 62.0456 26.7401C62.0456 27.1207 62.0968 27.4602 62.199 27.7585C62.3042 28.0568 62.459 28.2926 62.6635 28.4659C62.8709 28.6364 63.1266 28.7216 63.4306 28.7216ZM70.236 30.1065C69.7388 30.1065 69.2885 29.9787 68.8851 29.723C68.4846 29.4645 68.1664 29.0852 67.9306 28.5852C67.6976 28.0824 67.5811 27.4659 67.5811 26.7358C67.5811 25.9858 67.7019 25.3622 67.9434 24.8651C68.1848 24.3651 68.5059 23.9915 68.9064 23.7443C69.3098 23.4943 69.7516 23.3693 70.2317 23.3693C70.5982 23.3693 70.9036 23.4318 71.1479 23.5568C71.3951 23.679 71.5939 23.8324 71.7445 24.017C71.8979 24.1989 72.0144 24.3778 72.0939 24.554H72.1493V21.2727H73.9604V30H72.1706V28.9517H72.0939C72.0087 29.1335 71.888 29.3139 71.7317 29.4929C71.5783 29.669 71.378 29.8153 71.1309 29.9318C70.8865 30.0483 70.5882 30.1065 70.236 30.1065ZM70.8113 28.6619C71.1039 28.6619 71.351 28.5824 71.5527 28.4233C71.7573 28.2614 71.9135 28.0355 72.0215 27.7457C72.1323 27.456 72.1877 27.1165 72.1877 26.7273C72.1877 26.3381 72.1337 26 72.0257 25.7131C71.9178 25.4261 71.7615 25.2045 71.557 25.0483C71.3525 24.892 71.1039 24.8139 70.8113 24.8139C70.513 24.8139 70.2615 24.8949 70.057 25.0568C69.8525 25.2187 69.6976 25.4432 69.5925 25.7301C69.4874 26.017 69.4348 26.3494 69.4348 26.7273C69.4348 27.108 69.4874 27.4446 69.5925 27.7372C69.7005 28.027 69.8553 28.2543 70.057 28.419C70.2615 28.581 70.513 28.6619 70.8113 28.6619ZM78.4359 30.1278C77.7626 30.1278 77.1831 29.9915 76.6973 29.7188C76.2143 29.4432 75.8422 29.054 75.5808 28.5511C75.3194 28.0455 75.1887 27.4474 75.1887 26.7571C75.1887 26.0838 75.3194 25.4929 75.5808 24.9844C75.8422 24.4759 76.21 24.0795 76.6845 23.7955C77.1618 23.5114 77.7214 23.3693 78.3635 23.3693C78.7953 23.3693 79.1973 23.4389 79.5694 23.5781C79.9444 23.7145 80.2711 23.9205 80.5495 24.196C80.8308 24.4716 81.0495 24.8182 81.2058 25.2358C81.362 25.6506 81.4402 26.1364 81.4402 26.6932V27.1918H75.9132V26.0668H79.7314C79.7314 25.8054 79.6745 25.5739 79.5609 25.3722C79.4473 25.1705 79.2896 25.0128 79.0879 24.8991C78.889 24.7827 78.6575 24.7244 78.3933 24.7244C78.1177 24.7244 77.8734 24.7884 77.6603 24.9162C77.4501 25.0412 77.2853 25.2102 77.166 25.4233C77.0467 25.6335 76.9856 25.8679 76.9828 26.1264V27.196C76.9828 27.5199 77.0424 27.7997 77.1618 28.0355C77.2839 28.2713 77.4558 28.4531 77.6774 28.581C77.899 28.7088 78.1618 28.7727 78.4657 28.7727C78.6674 28.7727 78.8521 28.7443 79.0197 28.6875C79.1873 28.6307 79.3308 28.5455 79.4501 28.4318C79.5694 28.3182 79.6603 28.179 79.7228 28.0142L81.4018 28.125C81.3166 28.5284 81.1419 28.8807 80.8777 29.1818C80.6163 29.4801 80.2782 29.7131 79.8635 29.8807C79.4515 30.0455 78.9757 30.1278 78.4359 30.1278Z" fill="black"/>
<defs>
<filter id="filter0_d_6_4" x="2.66667" y="13.0306" width="30.7478" height="27.3025" filterUnits="userSpaceOnUse" color-interpolation-filters="sRGB">
<feFlood flood-opacity="0" result="BackgroundImageFix"/>
<feColorMatrix in="SourceAlpha" type="matrix" values="0 0 0 0 0 0 0 0 0 0 0 0 0 0 0 0 0 0 127 0" result="hardAlpha"/>
<feOffset/>
<feGaussianBlur stdDeviation="4.16667"/>
<feColorMatrix type="matrix" values="0 0 0 0 0 0 0 0 0 0 0 0 0 0 0 0 0 0 0.25 0"/>
<feBlend mode="overlay" in2="BackgroundImageFix" result="effect1_dropShadow_6_4"/>
<feBlend mode="normal" in="SourceGraphic" in2="effect1_dropShadow_6_4" result="shape"/>
</filter>
<filter id="filter1_d_6_4" x="12.3501" y="9.66666" width="21.0644" height="30.6667" filterUnits="userSpaceOnUse" color-interpolation-filters="sRGB">
<feFlood flood-opacity="0" result="BackgroundImageFix"/>
<feColorMatrix in="SourceAlpha" type="matrix" values="0 0 0 0 0 0 0 0 0 0 0 0 0 0 0 0 0 0 127 0" result="hardAlpha"/>
<feOffset/>
<feGaussianBlur stdDeviation="4.16667"/>
<feColorMatrix type="matrix" values="0 0 0 0 0 0 0 0 0 0 0 0 0 0 0 0 0 0 0.25 0"/>
<feBlend mode="overlay" in2="BackgroundImageFix" result="effect1_dropShadow_6_4"/>
<feBlend mode="normal" in="SourceGraphic" in2="effect1_dropShadow_6_4" result="shape"/>
</filter>
<linearGradient id="paint0_linear_6_4" x1="18.0363" y1="18.0001" x2="18.0363" y2="32.0001" gradientUnits="userSpaceOnUse">
<stop stop-color="white"/>
<stop offset="1" stop-color="white" stop-opacity="0"/>
</linearGradient>
</defs>
</svg>
