<svg width="91" height="39" viewBox="0 0 91 39" fill="none" xmlns="http://www.w3.org/2000/svg">
<rect y="5" width="91" height="28" fill="#F4B728"/>
<path d="M24.5832 13.4832L21.6836 12.0869C21.5198 12.0081 21.3356 11.9821 21.1564 12.0126C20.9772 12.0431 20.8119 12.1285 20.6835 12.2571L11.1913 20.9116C11.131 20.9666 11.0828 21.0336 11.0499 21.1083C11.0169 21.183 11 21.2637 11 21.3453C11.0001 21.4269 11.0172 21.5076 11.0502 21.5823C11.0833 21.6569 11.1316 21.7238 11.1919 21.7787L11.9673 22.4836C12.0686 22.5757 12.1989 22.6294 12.3356 22.6355C12.4724 22.6416 12.607 22.5996 12.7161 22.5169L24.1468 13.8452C24.5303 13.5543 25.0811 13.8278 25.0811 14.3092V14.2755C25.0811 14.11 25.0344 13.9478 24.9463 13.8076C24.8582 13.6674 24.7324 13.555 24.5832 13.4832Z" fill="black"/>
<g filter="url(#filter0_d_6_3)">
<path d="M24.5832 24.517L21.6836 25.913C21.5198 25.9919 21.3356 26.0179 21.1564 25.9874C20.9772 25.957 20.812 25.8716 20.6834 25.743L11.1913 17.0884C11.131 17.0334 11.0828 16.9664 11.0499 16.8918C11.0169 16.8171 10.9999 16.7363 11 16.6547C11.0001 16.5731 11.0172 16.4924 11.0502 16.4178C11.0833 16.3431 11.1315 16.2762 11.1919 16.2213L11.9673 15.5165C12.0685 15.4244 12.1989 15.3706 12.3356 15.3645C12.4724 15.3584 12.607 15.4004 12.7161 15.4832L24.1468 24.1547C24.5303 24.4457 25.0811 24.1722 25.0811 23.6909V23.7245C25.0811 23.8901 25.0344 24.0523 24.9463 24.1925C24.8582 24.3326 24.7324 24.4451 24.5832 24.517Z" fill="black"/>
</g>
<g filter="url(#filter1_d_6_3)">
<path d="M21.6837 25.9134C21.5199 25.9921 21.3356 26.0181 21.1564 25.9875C20.9772 25.957 20.812 25.8716 20.6834 25.7431C21.008 26.0676 21.563 25.8377 21.563 25.3787V12.6212C21.563 12.1622 21.008 11.9323 20.6834 12.2569C20.812 12.1284 20.9772 12.043 21.1564 12.0124C21.3356 11.9819 21.5199 12.0079 21.6837 12.0866L24.5827 13.4809C24.732 13.5527 24.858 13.6652 24.9462 13.8054C25.0343 13.9457 25.0811 14.1079 25.0811 14.2736V23.7266C25.0811 23.8923 25.0343 24.0545 24.9462 24.1948C24.858 24.335 24.732 24.4475 24.5827 24.5193L21.6837 25.9134Z" fill="black"/>
</g>
<path style="mix-blend-mode:overlay" opacity="0.25" fill-rule="evenodd" clip-rule="evenodd" d="M20.9792 25.9403C21.0912 25.9839 21.2109 26.004 21.331 25.9994C21.4511 25.9948 21.5689 25.9655 21.6772 25.9134L24.5745 24.5193C24.7237 24.4474 24.8496 24.3349 24.9377 24.1947C25.0259 24.0544 25.0726 23.8922 25.0725 23.7266V14.2736C25.0726 14.1079 25.0259 13.9457 24.9377 13.8054C24.8496 13.6652 24.7237 13.5527 24.5745 13.4809L21.6772 12.0869C21.5135 12.0081 21.3293 11.9822 21.1502 12.0127C20.9711 12.0432 20.8059 12.1286 20.6775 12.2571L15.1309 17.3173L12.7151 15.4835C12.6061 15.4007 12.4716 15.3587 12.3349 15.3648C12.1982 15.3709 12.0679 15.4246 11.9667 15.5167L11.1918 16.2215C11.1315 16.2764 11.0832 16.3434 11.0502 16.418C11.0172 16.4926 11.0001 16.5733 11 16.655C10.9999 16.7366 11.0169 16.8173 11.0498 16.892C11.0827 16.9667 11.1309 17.0337 11.1912 17.0887L13.2863 19.0001L11.1913 20.9115C11.131 20.9665 11.0828 21.0335 11.0499 21.1082C11.017 21.1829 11 21.2636 11.0001 21.3453C11.0001 21.4269 11.0172 21.5076 11.0503 21.5823C11.0833 21.6569 11.1316 21.7238 11.1919 21.7787L11.9668 22.4836C12.068 22.5757 12.1983 22.6294 12.335 22.6355C12.4717 22.6416 12.6062 22.5996 12.7152 22.5169L15.1312 20.6829L20.6777 25.7431C20.7635 25.829 20.8661 25.8962 20.9792 25.9403ZM21.5566 15.8054L17.348 19.0001L21.5566 22.1946V15.8054Z" fill="url(#paint0_linear_6_3)"/>
<path d="M33.4348 15.2727L35.5442 21.9034H35.6252L37.7388 15.2727H39.7843L36.7757 24H34.3979L31.3851 15.2727H33.4348ZM45.5691 17.7827C45.535 17.4389 45.3887 17.1719 45.1301 16.9815C44.8716 16.7912 44.5208 16.696 44.0776 16.696C43.7765 16.696 43.5222 16.7386 43.3148 16.8239C43.1074 16.9062 42.9483 17.0213 42.8375 17.169C42.7296 17.3168 42.6756 17.4844 42.6756 17.6719C42.6699 17.8281 42.7026 17.9645 42.7736 18.081C42.8475 18.1974 42.9483 18.2983 43.0762 18.3835C43.204 18.4659 43.3517 18.5384 43.5194 18.6009C43.687 18.6605 43.8659 18.7116 44.0563 18.7543L44.8404 18.9418C45.2211 19.027 45.5705 19.1406 45.8887 19.2827C46.2069 19.4247 46.4824 19.5994 46.7154 19.8068C46.9483 20.0142 47.1287 20.2585 47.2566 20.5398C47.3873 20.821 47.454 21.1435 47.4569 21.5071C47.454 22.0412 47.3176 22.5043 47.0478 22.8963C46.7807 23.2855 46.3944 23.5881 45.8887 23.804C45.3858 24.017 44.7793 24.1236 44.0691 24.1236C43.3645 24.1236 42.7509 24.0156 42.2282 23.7997C41.7083 23.5838 41.302 23.2642 41.0094 22.8409C40.7196 22.4148 40.5676 21.8878 40.5534 21.2599H42.339C42.3588 21.5526 42.4426 21.7969 42.5904 21.9929C42.7409 22.1861 42.9412 22.3324 43.1912 22.4318C43.4441 22.5284 43.7296 22.5767 44.0478 22.5767C44.3603 22.5767 44.6316 22.5312 44.8617 22.4403C45.0946 22.3494 45.275 22.223 45.4029 22.0611C45.5307 21.8991 45.5946 21.7131 45.5946 21.5028C45.5946 21.3068 45.5364 21.142 45.4199 21.0085C45.3063 20.875 45.1387 20.7614 44.9171 20.6676C44.6983 20.5739 44.4299 20.4886 44.1117 20.4119L43.1614 20.1733C42.4256 19.9943 41.8446 19.7145 41.4185 19.3338C40.9924 18.9531 40.7807 18.4403 40.7836 17.7955C40.7807 17.267 40.9213 16.8054 41.2054 16.4105C41.4924 16.0156 41.8858 15.7074 42.3858 15.4858C42.8858 15.2642 43.454 15.1534 44.0904 15.1534C44.7381 15.1534 45.3034 15.2642 45.7864 15.4858C46.2722 15.7074 46.65 16.0156 46.9199 16.4105C47.1898 16.8054 47.329 17.2628 47.3375 17.7827H45.5691ZM59.1756 18.3281H57.3091C57.275 18.0866 57.2054 17.8722 57.1003 17.6847C56.9952 17.4943 56.8603 17.3324 56.6955 17.1989C56.5307 17.0653 56.3404 16.9631 56.1245 16.892C55.9114 16.821 55.6799 16.7855 55.4299 16.7855C54.9782 16.7855 54.5847 16.8977 54.2495 17.1222C53.9142 17.3437 53.6543 17.6676 53.4696 18.0938C53.285 18.517 53.1926 19.0312 53.1926 19.6364C53.1926 20.2585 53.285 20.7812 53.4696 21.2045C53.6571 21.6278 53.9185 21.9474 54.2537 22.1634C54.589 22.3793 54.9767 22.4872 55.4171 22.4872C55.6642 22.4872 55.8929 22.4545 56.1032 22.3892C56.3162 22.3239 56.5051 22.2287 56.6699 22.1037C56.8347 21.9759 56.9711 21.821 57.079 21.6392C57.1898 21.4574 57.2665 21.25 57.3091 21.017L59.1756 21.0256C59.1273 21.4261 59.0066 21.8125 58.8134 22.1847C58.623 22.554 58.3659 22.8849 58.0421 23.1776C57.7211 23.4673 57.3375 23.6974 56.8915 23.8679C56.4483 24.0355 55.9469 24.1193 55.3873 24.1193C54.6088 24.1193 53.9128 23.9432 53.2992 23.5909C52.6884 23.2386 52.2054 22.7287 51.8503 22.0611C51.498 21.3935 51.3219 20.5852 51.3219 19.6364C51.3219 18.6847 51.5009 17.875 51.8588 17.2074C52.2168 16.5398 52.7026 16.0312 53.3162 15.6818C53.9299 15.3295 54.6202 15.1534 55.3873 15.1534C55.8929 15.1534 56.3617 15.2244 56.7935 15.3665C57.2282 15.5085 57.6131 15.7159 57.9483 15.9886C58.2836 16.2585 58.5563 16.5895 58.7665 16.9815C58.9796 17.3736 59.1159 17.8224 59.1756 18.3281ZM63.4221 24.1278C62.7601 24.1278 62.1877 23.9872 61.7047 23.706C61.2246 23.4219 60.8539 23.027 60.5925 22.5213C60.3311 22.0128 60.2005 21.4233 60.2005 20.7528C60.2005 20.0767 60.3311 19.4858 60.5925 18.9801C60.8539 18.4716 61.2246 18.0767 61.7047 17.7955C62.1877 17.5114 62.7601 17.3693 63.4221 17.3693C64.084 17.3693 64.655 17.5114 65.1351 17.7955C65.6181 18.0767 65.9902 18.4716 66.2516 18.9801C66.513 19.4858 66.6436 20.0767 66.6436 20.7528C66.6436 21.4233 66.513 22.0128 66.2516 22.5213C65.9902 23.027 65.6181 23.4219 65.1351 23.706C64.655 23.9872 64.084 24.1278 63.4221 24.1278ZM63.4306 22.7216C63.7317 22.7216 63.9831 22.6364 64.1848 22.4659C64.3865 22.2926 64.5385 22.0568 64.6408 21.7585C64.7459 21.4602 64.7985 21.1207 64.7985 20.7401C64.7985 20.3594 64.7459 20.0199 64.6408 19.7216C64.5385 19.4233 64.3865 19.1875 64.1848 19.0142C63.9831 18.8409 63.7317 18.7543 63.4306 18.7543C63.1266 18.7543 62.8709 18.8409 62.6635 19.0142C62.459 19.1875 62.3042 19.4233 62.199 19.7216C62.0968 20.0199 62.0456 20.3594 62.0456 20.7401C62.0456 21.1207 62.0968 21.4602 62.199 21.7585C62.3042 22.0568 62.459 22.2926 62.6635 22.4659C62.8709 22.6364 63.1266 22.7216 63.4306 22.7216ZM70.236 24.1065C69.7388 24.1065 69.2885 23.9787 68.8851 23.723C68.4846 23.4645 68.1664 23.0852 67.9306 22.5852C67.6976 22.0824 67.5811 21.4659 67.5811 20.7358C67.5811 19.9858 67.7019 19.3622 67.9434 18.8651C68.1848 18.3651 68.5059 17.9915 68.9064 17.7443C69.3098 17.4943 69.7516 17.3693 70.2317 17.3693C70.5982 17.3693 70.9036 17.4318 71.1479 17.5568C71.3951 17.679 71.5939 17.8324 71.7445 18.017C71.8979 18.1989 72.0144 18.3778 72.0939 18.554H72.1493V15.2727H73.9604V24H72.1706V22.9517H72.0939C72.0087 23.1335 71.888 23.3139 71.7317 23.4929C71.5783 23.669 71.378 23.8153 71.1309 23.9318C70.8865 24.0483 70.5882 24.1065 70.236 24.1065ZM70.8113 22.6619C71.1039 22.6619 71.351 22.5824 71.5527 22.4233C71.7573 22.2614 71.9135 22.0355 72.0215 21.7457C72.1323 21.456 72.1877 21.1165 72.1877 20.7273C72.1877 20.3381 72.1337 20 72.0257 19.7131C71.9178 19.4261 71.7615 19.2045 71.557 19.0483C71.3525 18.892 71.1039 18.8139 70.8113 18.8139C70.513 18.8139 70.2615 18.8949 70.057 19.0568C69.8525 19.2187 69.6976 19.4432 69.5925 19.7301C69.4874 20.017 69.4348 20.3494 69.4348 20.7273C69.4348 21.108 69.4874 21.4446 69.5925 21.7372C69.7005 22.027 69.8553 22.2543 70.057 22.419C70.2615 22.581 70.513 22.6619 70.8113 22.6619ZM78.4359 24.1278C77.7626 24.1278 77.1831 23.9915 76.6973 23.7188C76.2143 23.4432 75.8422 23.054 75.5808 22.5511C75.3194 22.0455 75.1887 21.4474 75.1887 20.7571C75.1887 20.0838 75.3194 19.4929 75.5808 18.9844C75.8422 18.4759 76.21 18.0795 76.6845 17.7955C77.1618 17.5114 77.7214 17.3693 78.3635 17.3693C78.7953 17.3693 79.1973 17.4389 79.5694 17.5781C79.9444 17.7145 80.2711 17.9205 80.5495 18.196C80.8308 18.4716 81.0495 18.8182 81.2058 19.2358C81.362 19.6506 81.4402 20.1364 81.4402 20.6932V21.1918H75.9132V20.0668H79.7314C79.7314 19.8054 79.6745 19.5739 79.5609 19.3722C79.4473 19.1705 79.2896 19.0128 79.0879 18.8991C78.889 18.7827 78.6575 18.7244 78.3933 18.7244C78.1177 18.7244 77.8734 18.7884 77.6603 18.9162C77.4501 19.0412 77.2853 19.2102 77.166 19.4233C77.0467 19.6335 76.9856 19.8679 76.9828 20.1264V21.196C76.9828 21.5199 77.0424 21.7997 77.1618 22.0355C77.2839 22.2713 77.4558 22.4531 77.6774 22.581C77.899 22.7088 78.1618 22.7727 78.4657 22.7727C78.6674 22.7727 78.8521 22.7443 79.0197 22.6875C79.1873 22.6307 79.3308 22.5455 79.4501 22.4318C79.5694 22.3182 79.6603 22.179 79.7228 22.0142L81.4018 22.125C81.3166 22.5284 81.1419 22.8807 80.8777 23.1818C80.6163 23.4801 80.2782 23.7131 79.8635 23.8807C79.4515 24.0455 78.9757 24.1278 78.4359 24.1278Z" fill="black"/>
<defs>
<filter id="filter0_d_6_3" x="2.66667" y="7.03061" width="30.7478" height="27.3025" filterUnits="userSpaceOnUse" color-interpolation-filters="sRGB">
<feFlood flood-opacity="0" result="BackgroundImageFix"/>
<feColorMatrix in="SourceAlpha" type="matrix" values="0 0 0 0 0 0 0 0 0 0 0 0 0 0 0 0 0 0 127 0" result="hardAlpha"/>
<feOffset/>
<feGaussianBlur stdDeviation="4.16667"/>
<feColorMatrix type="matrix" values="0 0 0 0 0 0 0 0 0 0 0 0 0 0 0 0 0 0 0.25 0"/>
<feBlend mode="overlay" in2="BackgroundImageFix" result="effect1_dropShadow_6_3"/>
<feBlend mode="normal" in="SourceGraphic" in2="effect1_dropShadow_6_3" result="shape"/>
</filter>
<filter id="filter1_d_6_3" x="12.3501" y="3.66666" width="21.0644" height="30.6667" filterUnits="userSpaceOnUse" color-interpolation-filters="sRGB">
<feFlood flood-opacity="0" result="BackgroundImageFix"/>
<feColorMatrix in="SourceAlpha" type="matrix" values="0 0 0 0 0 0 0 0 0 0 0 0 0 0 0 0 0 0 127 0" result="hardAlpha"/>
<feOffset/>
<feGaussianBlur stdDeviation="4.16667"/>
<feColorMatrix type="matrix" values="0 0 0 0 0 0 0 0 0 0 0 0 0 0 0 0 0 0 0.25 0"/>
<feBlend mode="overlay" in2="BackgroundImageFix" result="effect1_dropShadow_6_3"/>
<feBlend mode="normal" in="SourceGraphic" in2="effect1_dropShadow_6_3" result="shape"/>
</filter>
<linearGradient id="paint0_linear_6_3" x1="18.0363" y1="12.0001" x2="18.0363" y2="26.0001" gradientUnits="userSpaceOnUse">
<stop stop-color="white"/>
<stop offset="1" stop-color="white" stop-opacity="0"/>
</linearGradient>
</defs>
</svg>
