<svg width="91" height="45" viewBox="0 0 91 45" fill="none" xmlns="http://www.w3.org/2000/svg">
<rect y="15" width="91" height="28" fill="#F4B728"/>
<path d="M24.5832 23.4832L21.6836 22.0869C21.5198 22.0081 21.3356 21.9821 21.1564 22.0126C20.9772 22.0431 20.8119 22.1285 20.6835 22.2571L11.1913 30.9116C11.131 30.9666 11.0828 31.0336 11.0499 31.1083C11.0169 31.1829 11 31.2637 11 31.3453C11.0001 31.4269 11.0172 31.5076 11.0502 31.5823C11.0833 31.6569 11.1316 31.7238 11.1919 31.7787L11.9673 32.4836C12.0686 32.5757 12.1989 32.6294 12.3356 32.6355C12.4724 32.6416 12.607 32.5996 12.7161 32.5169L24.1468 23.8452C24.5303 23.5543 25.0811 23.8278 25.0811 24.3092V24.2755C25.0811 24.11 25.0344 23.9478 24.9463 23.8076C24.8582 23.6674 24.7324 23.555 24.5832 23.4832Z" fill="black"/>
<g filter="url(#filter0_d_6_6)">
<path d="M24.5832 34.517L21.6836 35.913C21.5198 35.9919 21.3356 36.0179 21.1564 35.9874C20.9772 35.957 20.812 35.8716 20.6834 35.743L11.1913 27.0884C11.131 27.0334 11.0828 26.9664 11.0499 26.8918C11.0169 26.8171 10.9999 26.7363 11 26.6547C11.0001 26.5731 11.0172 26.4924 11.0502 26.4178C11.0833 26.3431 11.1315 26.2762 11.1919 26.2213L11.9673 25.5165C12.0685 25.4244 12.1989 25.3706 12.3356 25.3645C12.4724 25.3584 12.607 25.4004 12.7161 25.4832L24.1468 34.1547C24.5303 34.4457 25.0811 34.1722 25.0811 33.6909V33.7245C25.0811 33.8901 25.0344 34.0523 24.9463 34.1925C24.8582 34.3326 24.7324 34.4451 24.5832 34.517Z" fill="black"/>
</g>
<g filter="url(#filter1_d_6_6)">
<path d="M21.6837 35.9134C21.5199 35.9921 21.3356 36.0181 21.1564 35.9875C20.9772 35.957 20.812 35.8716 20.6834 35.7431C21.008 36.0676 21.563 35.8377 21.563 35.3787V22.6212C21.563 22.1622 21.008 21.9323 20.6834 22.2569C20.812 22.1284 20.9772 22.043 21.1564 22.0124C21.3356 21.9819 21.5199 22.0079 21.6837 22.0866L24.5827 23.4809C24.732 23.5527 24.858 23.6652 24.9462 23.8054C25.0343 23.9457 25.0811 24.1079 25.0811 24.2736V33.7266C25.0811 33.8923 25.0343 34.0545 24.9462 34.1948C24.858 34.335 24.732 34.4475 24.5827 34.5193L21.6837 35.9134Z" fill="black"/>
</g>
<path style="mix-blend-mode:overlay" opacity="0.25" fill-rule="evenodd" clip-rule="evenodd" d="M20.9792 35.9403C21.0912 35.9839 21.2109 36.004 21.331 35.9994C21.4511 35.9948 21.5689 35.9655 21.6772 35.9134L24.5745 34.5193C24.7237 34.4474 24.8496 34.3349 24.9377 34.1947C25.0259 34.0544 25.0726 33.8922 25.0725 33.7266V24.2736C25.0726 24.1079 25.0259 23.9457 24.9377 23.8054C24.8496 23.6652 24.7237 23.5527 24.5745 23.4809L21.6772 22.0869C21.5135 22.0081 21.3293 21.9822 21.1502 22.0127C20.9711 22.0432 20.8059 22.1286 20.6775 22.2571L15.1309 27.3173L12.7151 25.4835C12.6061 25.4007 12.4716 25.3587 12.3349 25.3648C12.1982 25.3709 12.0679 25.4246 11.9667 25.5167L11.1918 26.2215C11.1315 26.2764 11.0832 26.3434 11.0502 26.418C11.0172 26.4926 11.0001 26.5733 11 26.655C10.9999 26.7366 11.0169 26.8173 11.0498 26.892C11.0827 26.9667 11.1309 27.0337 11.1912 27.0887L13.2863 29.0001L11.1913 30.9115C11.131 30.9665 11.0828 31.0335 11.0499 31.1082C11.017 31.1829 11 31.2636 11.0001 31.3453C11.0001 31.4269 11.0172 31.5076 11.0503 31.5823C11.0833 31.6569 11.1316 31.7238 11.1919 31.7787L11.9668 32.4836C12.068 32.5757 12.1983 32.6294 12.335 32.6355C12.4717 32.6416 12.6062 32.5996 12.7152 32.5169L15.1312 30.6829L20.6777 35.7431C20.7635 35.829 20.8661 35.8962 20.9792 35.9403ZM21.5566 25.8054L17.348 29.0001L21.5566 32.1946V25.8054Z" fill="url(#paint0_linear_6_6)"/>
<path d="M33.4348 25.2727L35.5442 31.9034H35.6252L37.7388 25.2727H39.7843L36.7757 34H34.3979L31.3851 25.2727H33.4348ZM45.5691 27.7827C45.535 27.4389 45.3887 27.1719 45.1301 26.9815C44.8716 26.7912 44.5208 26.696 44.0776 26.696C43.7765 26.696 43.5222 26.7386 43.3148 26.8239C43.1074 26.9062 42.9483 27.0213 42.8375 27.169C42.7296 27.3168 42.6756 27.4844 42.6756 27.6719C42.6699 27.8281 42.7026 27.9645 42.7736 28.081C42.8475 28.1974 42.9483 28.2983 43.0762 28.3835C43.204 28.4659 43.3517 28.5384 43.5194 28.6009C43.687 28.6605 43.8659 28.7116 44.0563 28.7543L44.8404 28.9418C45.2211 29.027 45.5705 29.1406 45.8887 29.2827C46.2069 29.4247 46.4824 29.5994 46.7154 29.8068C46.9483 30.0142 47.1287 30.2585 47.2566 30.5398C47.3873 30.821 47.454 31.1435 47.4569 31.5071C47.454 32.0412 47.3176 32.5043 47.0478 32.8963C46.7807 33.2855 46.3944 33.5881 45.8887 33.804C45.3858 34.017 44.7793 34.1236 44.0691 34.1236C43.3645 34.1236 42.7509 34.0156 42.2282 33.7997C41.7083 33.5838 41.302 33.2642 41.0094 32.8409C40.7196 32.4148 40.5676 31.8878 40.5534 31.2599H42.339C42.3588 31.5526 42.4426 31.7969 42.5904 31.9929C42.7409 32.1861 42.9412 32.3324 43.1912 32.4318C43.4441 32.5284 43.7296 32.5767 44.0478 32.5767C44.3603 32.5767 44.6316 32.5312 44.8617 32.4403C45.0946 32.3494 45.275 32.223 45.4029 32.0611C45.5307 31.8991 45.5946 31.7131 45.5946 31.5028C45.5946 31.3068 45.5364 31.142 45.4199 31.0085C45.3063 30.875 45.1387 30.7614 44.9171 30.6676C44.6983 30.5739 44.4299 30.4886 44.1117 30.4119L43.1614 30.1733C42.4256 29.9943 41.8446 29.7145 41.4185 29.3338C40.9924 28.9531 40.7807 28.4403 40.7836 27.7955C40.7807 27.267 40.9213 26.8054 41.2054 26.4105C41.4924 26.0156 41.8858 25.7074 42.3858 25.4858C42.8858 25.2642 43.454 25.1534 44.0904 25.1534C44.7381 25.1534 45.3034 25.2642 45.7864 25.4858C46.2722 25.7074 46.65 26.0156 46.9199 26.4105C47.1898 26.8054 47.329 27.2628 47.3375 27.7827H45.5691ZM59.1756 28.3281H57.3091C57.275 28.0866 57.2054 27.8722 57.1003 27.6847C56.9952 27.4943 56.8603 27.3324 56.6955 27.1989C56.5307 27.0653 56.3404 26.9631 56.1245 26.892C55.9114 26.821 55.6799 26.7855 55.4299 26.7855C54.9782 26.7855 54.5847 26.8977 54.2495 27.1222C53.9142 27.3437 53.6543 27.6676 53.4696 28.0938C53.285 28.517 53.1926 29.0312 53.1926 29.6364C53.1926 30.2585 53.285 30.7812 53.4696 31.2045C53.6571 31.6278 53.9185 31.9474 54.2537 32.1634C54.589 32.3793 54.9767 32.4872 55.4171 32.4872C55.6642 32.4872 55.8929 32.4545 56.1032 32.3892C56.3162 32.3239 56.5051 32.2287 56.6699 32.1037C56.8347 31.9759 56.9711 31.821 57.079 31.6392C57.1898 31.4574 57.2665 31.25 57.3091 31.017L59.1756 31.0256C59.1273 31.4261 59.0066 31.8125 58.8134 32.1847C58.623 32.554 58.3659 32.8849 58.0421 33.1776C57.7211 33.4673 57.3375 33.6974 56.8915 33.8679C56.4483 34.0355 55.9469 34.1193 55.3873 34.1193C54.6088 34.1193 53.9128 33.9432 53.2992 33.5909C52.6884 33.2386 52.2054 32.7287 51.8503 32.0611C51.498 31.3935 51.3219 30.5852 51.3219 29.6364C51.3219 28.6847 51.5009 27.875 51.8588 27.2074C52.2168 26.5398 52.7026 26.0312 53.3162 25.6818C53.9299 25.3295 54.6202 25.1534 55.3873 25.1534C55.8929 25.1534 56.3617 25.2244 56.7935 25.3665C57.2282 25.5085 57.6131 25.7159 57.9483 25.9886C58.2836 26.2585 58.5563 26.5895 58.7665 26.9815C58.9796 27.3736 59.1159 27.8224 59.1756 28.3281ZM63.4221 34.1278C62.7601 34.1278 62.1877 33.9872 61.7047 33.706C61.2246 33.4219 60.8539 33.027 60.5925 32.5213C60.3311 32.0128 60.2005 31.4233 60.2005 30.7528C60.2005 30.0767 60.3311 29.4858 60.5925 28.9801C60.8539 28.4716 61.2246 28.0767 61.7047 27.7955C62.1877 27.5114 62.7601 27.3693 63.4221 27.3693C64.084 27.3693 64.655 27.5114 65.1351 27.7955C65.6181 28.0767 65.9902 28.4716 66.2516 28.9801C66.513 29.4858 66.6436 30.0767 66.6436 30.7528C66.6436 31.4233 66.513 32.0128 66.2516 32.5213C65.9902 33.027 65.6181 33.4219 65.1351 33.706C64.655 33.9872 64.084 34.1278 63.4221 34.1278ZM63.4306 32.7216C63.7317 32.7216 63.9831 32.6364 64.1848 32.4659C64.3865 32.2926 64.5385 32.0568 64.6408 31.7585C64.7459 31.4602 64.7985 31.1207 64.7985 30.7401C64.7985 30.3594 64.7459 30.0199 64.6408 29.7216C64.5385 29.4233 64.3865 29.1875 64.1848 29.0142C63.9831 28.8409 63.7317 28.7543 63.4306 28.7543C63.1266 28.7543 62.8709 28.8409 62.6635 29.0142C62.459 29.1875 62.3042 29.4233 62.199 29.7216C62.0968 30.0199 62.0456 30.3594 62.0456 30.7401C62.0456 31.1207 62.0968 31.4602 62.199 31.7585C62.3042 32.0568 62.459 32.2926 62.6635 32.4659C62.8709 32.6364 63.1266 32.7216 63.4306 32.7216ZM70.236 34.1065C69.7388 34.1065 69.2885 33.9787 68.8851 33.723C68.4846 33.4645 68.1664 33.0852 67.9306 32.5852C67.6976 32.0824 67.5811 31.4659 67.5811 30.7358C67.5811 29.9858 67.7019 29.3622 67.9434 28.8651C68.1848 28.3651 68.5059 27.9915 68.9064 27.7443C69.3098 27.4943 69.7516 27.3693 70.2317 27.3693C70.5982 27.3693 70.9036 27.4318 71.1479 27.5568C71.3951 27.679 71.5939 27.8324 71.7445 28.017C71.8979 28.1989 72.0144 28.3778 72.0939 28.554H72.1493V25.2727H73.9604V34H72.1706V32.9517H72.0939C72.0087 33.1335 71.888 33.3139 71.7317 33.4929C71.5783 33.669 71.378 33.8153 71.1309 33.9318C70.8865 34.0483 70.5882 34.1065 70.236 34.1065ZM70.8113 32.6619C71.1039 32.6619 71.351 32.5824 71.5527 32.4233C71.7573 32.2614 71.9135 32.0355 72.0215 31.7457C72.1323 31.456 72.1877 31.1165 72.1877 30.7273C72.1877 30.3381 72.1337 30 72.0257 29.7131C71.9178 29.4261 71.7615 29.2045 71.557 29.0483C71.3525 28.892 71.1039 28.8139 70.8113 28.8139C70.513 28.8139 70.2615 28.8949 70.057 29.0568C69.8525 29.2187 69.6976 29.4432 69.5925 29.7301C69.4874 30.017 69.4348 30.3494 69.4348 30.7273C69.4348 31.108 69.4874 31.4446 69.5925 31.7372C69.7005 32.027 69.8553 32.2543 70.057 32.419C70.2615 32.581 70.513 32.6619 70.8113 32.6619ZM78.4359 34.1278C77.7626 34.1278 77.1831 33.9915 76.6973 33.7188C76.2143 33.4432 75.8422 33.054 75.5808 32.5511C75.3194 32.0455 75.1887 31.4474 75.1887 30.7571C75.1887 30.0838 75.3194 29.4929 75.5808 28.9844C75.8422 28.4759 76.21 28.0795 76.6845 27.7955C77.1618 27.5114 77.7214 27.3693 78.3635 27.3693C78.7953 27.3693 79.1973 27.4389 79.5694 27.5781C79.9444 27.7145 80.2711 27.9205 80.5495 28.196C80.8308 28.4716 81.0495 28.8182 81.2058 29.2358C81.362 29.6506 81.4402 30.1364 81.4402 30.6932V31.1918H75.9132V30.0668H79.7314C79.7314 29.8054 79.6745 29.5739 79.5609 29.3722C79.4473 29.1705 79.2896 29.0128 79.0879 28.8991C78.889 28.7827 78.6575 28.7244 78.3933 28.7244C78.1177 28.7244 77.8734 28.7884 77.6603 28.9162C77.4501 29.0412 77.2853 29.2102 77.166 29.4233C77.0467 29.6335 76.9856 29.8679 76.9828 30.1264V31.196C76.9828 31.5199 77.0424 31.7997 77.1618 32.0355C77.2839 32.2713 77.4558 32.4531 77.6774 32.581C77.899 32.7088 78.1618 32.7727 78.4657 32.7727C78.6674 32.7727 78.8521 32.7443 79.0197 32.6875C79.1873 32.6307 79.3308 32.5455 79.4501 32.4318C79.5694 32.3182 79.6603 32.179 79.7228 32.0142L81.4018 32.125C81.3166 32.5284 81.1419 32.8807 80.8777 33.1818C80.6163 33.4801 80.2782 33.7131 79.8635 33.8807C79.4515 34.0455 78.9757 34.1278 78.4359 34.1278Z" fill="black"/>
<defs>
<filter id="filter0_d_6_6" x="2.66667" y="17.0306" width="30.7478" height="27.3025" filterUnits="userSpaceOnUse" color-interpolation-filters="sRGB">
<feFlood flood-opacity="0" result="BackgroundImageFix"/>
<feColorMatrix in="SourceAlpha" type="matrix" values="0 0 0 0 0 0 0 0 0 0 0 0 0 0 0 0 0 0 127 0" result="hardAlpha"/>
<feOffset/>
<feGaussianBlur stdDeviation="4.16667"/>
<feColorMatrix type="matrix" values="0 0 0 0 0 0 0 0 0 0 0 0 0 0 0 0 0 0 0.25 0"/>
<feBlend mode="overlay" in2="BackgroundImageFix" result="effect1_dropShadow_6_6"/>
<feBlend mode="normal" in="SourceGraphic" in2="effect1_dropShadow_6_6" result="shape"/>
</filter>
<filter id="filter1_d_6_6" x="12.3501" y="13.6667" width="21.0644" height="30.6667" filterUnits="userSpaceOnUse" color-interpolation-filters="sRGB">
<feFlood flood-opacity="0" result="BackgroundImageFix"/>
<feColorMatrix in="SourceAlpha" type="matrix" values="0 0 0 0 0 0 0 0 0 0 0 0 0 0 0 0 0 0 127 0" result="hardAlpha"/>
<feOffset/>
<feGaussianBlur stdDeviation="4.16667"/>
<feColorMatrix type="matrix" values="0 0 0 0 0 0 0 0 0 0 0 0 0 0 0 0 0 0 0.25 0"/>
<feBlend mode="overlay" in2="BackgroundImageFix" result="effect1_dropShadow_6_6"/>
<feBlend mode="normal" in="SourceGraphic" in2="effect1_dropShadow_6_6" result="shape"/>
</filter>
<linearGradient id="paint0_linear_6_6" x1="18.0363" y1="22.0001" x2="18.0363" y2="36.0001" gradientUnits="userSpaceOnUse">
<stop stop-color="white"/>
<stop offset="1" stop-color="white" stop-opacity="0"/>
</linearGradient>
</defs>
</svg>
