<svg width="91" height="32" viewBox="0 0 91 32" fill="none" xmlns="http://www.w3.org/2000/svg">
<rect y="2" width="91" height="28" fill="#F4B728"/>
<path d="M24.5832 10.4832L21.6836 9.0869C21.5198 9.00808 21.3356 8.98211 21.1564 9.01261C20.9772 9.0431 20.8119 9.12853 20.6835 9.25709L11.1913 17.9116C11.131 17.9666 11.0828 18.0336 11.0499 18.1083C11.0169 18.1829 11 18.2637 11 18.3453C11.0001 18.4269 11.0172 18.5076 11.0502 18.5823C11.0833 18.6569 11.1316 18.7238 11.1919 18.7787L11.9673 19.4836C12.0686 19.5757 12.1989 19.6294 12.3356 19.6355C12.4724 19.6416 12.607 19.5996 12.7161 19.5169L24.1468 10.8452C24.5303 10.5543 25.0811 10.8278 25.0811 11.3092V11.2755C25.0811 11.11 25.0344 10.9478 24.9463 10.8076C24.8582 10.6674 24.7324 10.555 24.5832 10.4832Z" fill="black"/>
<g filter="url(#filter0_d_2_8)">
<path d="M24.5832 21.517L21.6836 22.913C21.5198 22.9919 21.3356 23.0179 21.1564 22.9874C20.9772 22.957 20.812 22.8716 20.6834 22.743L11.1913 14.0884C11.131 14.0334 11.0828 13.9664 11.0499 13.8918C11.0169 13.8171 10.9999 13.7363 11 13.6547C11.0001 13.5731 11.0172 13.4924 11.0502 13.4178C11.0833 13.3431 11.1315 13.2762 11.1919 13.2213L11.9673 12.5165C12.0685 12.4244 12.1989 12.3706 12.3356 12.3645C12.4724 12.3584 12.607 12.4004 12.7161 12.4832L24.1468 21.1547C24.5303 21.4457 25.0811 21.1722 25.0811 20.6909V20.7245C25.0811 20.8901 25.0344 21.0523 24.9463 21.1925C24.8582 21.3326 24.7324 21.4451 24.5832 21.517Z" fill="black"/>
</g>
<g filter="url(#filter1_d_2_8)">
<path d="M21.6837 22.9134C21.5199 22.9921 21.3356 23.0181 21.1564 22.9875C20.9772 22.957 20.812 22.8716 20.6834 22.7431C21.008 23.0676 21.563 22.8377 21.563 22.3787V9.62117C21.563 9.16216 21.008 8.93227 20.6834 9.25693C20.812 9.12838 20.9772 9.04295 21.1564 9.01244C21.3356 8.98193 21.5199 9.00786 21.6837 9.08663L24.5827 10.4809C24.732 10.5527 24.858 10.6652 24.9462 10.8054C25.0343 10.9457 25.0811 11.1079 25.0811 11.2736V20.7266C25.0811 20.8923 25.0343 21.0545 24.9462 21.1948C24.858 21.335 24.732 21.4475 24.5827 21.5193L21.6837 22.9134Z" fill="black"/>
</g>
<path style="mix-blend-mode:overlay" opacity="0.25" fill-rule="evenodd" clip-rule="evenodd" d="M20.9792 22.9403C21.0912 22.9839 21.2109 23.004 21.331 22.9994C21.4511 22.9948 21.5689 22.9655 21.6772 22.9134L24.5745 21.5193C24.7237 21.4474 24.8496 21.3349 24.9377 21.1947C25.0259 21.0544 25.0726 20.8922 25.0725 20.7266V11.2736C25.0726 11.1079 25.0259 10.9457 24.9377 10.8054C24.8496 10.6652 24.7237 10.5527 24.5745 10.4809L21.6772 9.08692C21.5135 9.00815 21.3293 8.98221 21.1502 9.0127C20.9711 9.04319 20.8059 9.1286 20.6775 9.25711L15.1309 14.3173L12.7151 12.4835C12.6061 12.4007 12.4716 12.3587 12.3349 12.3648C12.1982 12.3709 12.0679 12.4246 11.9667 12.5167L11.1918 13.2215C11.1315 13.2764 11.0832 13.3434 11.0502 13.418C11.0172 13.4926 11.0001 13.5733 11 13.655C10.9999 13.7366 11.0169 13.8173 11.0498 13.892C11.0827 13.9667 11.1309 14.0337 11.1912 14.0887L13.2863 16.0001L11.1913 17.9115C11.131 17.9665 11.0828 18.0335 11.0499 18.1082C11.017 18.1829 11 18.2636 11.0001 18.3453C11.0001 18.4269 11.0172 18.5076 11.0503 18.5823C11.0833 18.6569 11.1316 18.7238 11.1919 18.7787L11.9668 19.4836C12.068 19.5757 12.1983 19.6294 12.335 19.6355C12.4717 19.6416 12.6062 19.5996 12.7152 19.5169L15.1312 17.6829L20.6777 22.7431C20.7635 22.829 20.8661 22.8962 20.9792 22.9403ZM21.5566 12.8054L17.348 16.0001L21.5566 19.1946V12.8054Z" fill="url(#paint0_linear_2_8)"/>
<path d="M33.4348 12.2727L35.5442 18.9034H35.6252L37.7388 12.2727H39.7843L36.7757 21H34.3979L31.3851 12.2727H33.4348ZM45.5691 14.7827C45.535 14.4389 45.3887 14.1719 45.1301 13.9815C44.8716 13.7912 44.5208 13.696 44.0776 13.696C43.7765 13.696 43.5222 13.7386 43.3148 13.8239C43.1074 13.9062 42.9483 14.0213 42.8375 14.169C42.7296 14.3168 42.6756 14.4844 42.6756 14.6719C42.6699 14.8281 42.7026 14.9645 42.7736 15.081C42.8475 15.1974 42.9483 15.2983 43.0762 15.3835C43.204 15.4659 43.3517 15.5384 43.5194 15.6009C43.687 15.6605 43.8659 15.7116 44.0563 15.7543L44.8404 15.9418C45.2211 16.027 45.5705 16.1406 45.8887 16.2827C46.2069 16.4247 46.4824 16.5994 46.7154 16.8068C46.9483 17.0142 47.1287 17.2585 47.2566 17.5398C47.3873 17.821 47.454 18.1435 47.4569 18.5071C47.454 19.0412 47.3176 19.5043 47.0478 19.8963C46.7807 20.2855 46.3944 20.5881 45.8887 20.804C45.3858 21.017 44.7793 21.1236 44.0691 21.1236C43.3645 21.1236 42.7509 21.0156 42.2282 20.7997C41.7083 20.5838 41.302 20.2642 41.0094 19.8409C40.7196 19.4148 40.5676 18.8878 40.5534 18.2599H42.339C42.3588 18.5526 42.4426 18.7969 42.5904 18.9929C42.7409 19.1861 42.9412 19.3324 43.1912 19.4318C43.4441 19.5284 43.7296 19.5767 44.0478 19.5767C44.3603 19.5767 44.6316 19.5312 44.8617 19.4403C45.0946 19.3494 45.275 19.223 45.4029 19.0611C45.5307 18.8991 45.5946 18.7131 45.5946 18.5028C45.5946 18.3068 45.5364 18.142 45.4199 18.0085C45.3063 17.875 45.1387 17.7614 44.9171 17.6676C44.6983 17.5739 44.4299 17.4886 44.1117 17.4119L43.1614 17.1733C42.4256 16.9943 41.8446 16.7145 41.4185 16.3338C40.9924 15.9531 40.7807 15.4403 40.7836 14.7955C40.7807 14.267 40.9213 13.8054 41.2054 13.4105C41.4924 13.0156 41.8858 12.7074 42.3858 12.4858C42.8858 12.2642 43.454 12.1534 44.0904 12.1534C44.7381 12.1534 45.3034 12.2642 45.7864 12.4858C46.2722 12.7074 46.65 13.0156 46.9199 13.4105C47.1898 13.8054 47.329 14.2628 47.3375 14.7827H45.5691ZM59.1756 15.3281H57.3091C57.275 15.0866 57.2054 14.8722 57.1003 14.6847C56.9952 14.4943 56.8603 14.3324 56.6955 14.1989C56.5307 14.0653 56.3404 13.9631 56.1245 13.892C55.9114 13.821 55.6799 13.7855 55.4299 13.7855C54.9782 13.7855 54.5847 13.8977 54.2495 14.1222C53.9142 14.3437 53.6543 14.6676 53.4696 15.0938C53.285 15.517 53.1926 16.0312 53.1926 16.6364C53.1926 17.2585 53.285 17.7812 53.4696 18.2045C53.6571 18.6278 53.9185 18.9474 54.2537 19.1634C54.589 19.3793 54.9767 19.4872 55.4171 19.4872C55.6642 19.4872 55.8929 19.4545 56.1032 19.3892C56.3162 19.3239 56.5051 19.2287 56.6699 19.1037C56.8347 18.9759 56.9711 18.821 57.079 18.6392C57.1898 18.4574 57.2665 18.25 57.3091 18.017L59.1756 18.0256C59.1273 18.4261 59.0066 18.8125 58.8134 19.1847C58.623 19.554 58.3659 19.8849 58.0421 20.1776C57.7211 20.4673 57.3375 20.6974 56.8915 20.8679C56.4483 21.0355 55.9469 21.1193 55.3873 21.1193C54.6088 21.1193 53.9128 20.9432 53.2992 20.5909C52.6884 20.2386 52.2054 19.7287 51.8503 19.0611C51.498 18.3935 51.3219 17.5852 51.3219 16.6364C51.3219 15.6847 51.5009 14.875 51.8588 14.2074C52.2168 13.5398 52.7026 13.0312 53.3162 12.6818C53.9299 12.3295 54.6202 12.1534 55.3873 12.1534C55.8929 12.1534 56.3617 12.2244 56.7935 12.3665C57.2282 12.5085 57.6131 12.7159 57.9483 12.9886C58.2836 13.2585 58.5563 13.5895 58.7665 13.9815C58.9796 14.3736 59.1159 14.8224 59.1756 15.3281ZM63.4221 21.1278C62.7601 21.1278 62.1877 20.9872 61.7047 20.706C61.2246 20.4219 60.8539 20.027 60.5925 19.5213C60.3311 19.0128 60.2005 18.4233 60.2005 17.7528C60.2005 17.0767 60.3311 16.4858 60.5925 15.9801C60.8539 15.4716 61.2246 15.0767 61.7047 14.7955C62.1877 14.5114 62.7601 14.3693 63.4221 14.3693C64.084 14.3693 64.655 14.5114 65.1351 14.7955C65.6181 15.0767 65.9902 15.4716 66.2516 15.9801C66.513 16.4858 66.6436 17.0767 66.6436 17.7528C66.6436 18.4233 66.513 19.0128 66.2516 19.5213C65.9902 20.027 65.6181 20.4219 65.1351 20.706C64.655 20.9872 64.084 21.1278 63.4221 21.1278ZM63.4306 19.7216C63.7317 19.7216 63.9831 19.6364 64.1848 19.4659C64.3865 19.2926 64.5385 19.0568 64.6408 18.7585C64.7459 18.4602 64.7985 18.1207 64.7985 17.7401C64.7985 17.3594 64.7459 17.0199 64.6408 16.7216C64.5385 16.4233 64.3865 16.1875 64.1848 16.0142C63.9831 15.8409 63.7317 15.7543 63.4306 15.7543C63.1266 15.7543 62.8709 15.8409 62.6635 16.0142C62.459 16.1875 62.3042 16.4233 62.199 16.7216C62.0968 17.0199 62.0456 17.3594 62.0456 17.7401C62.0456 18.1207 62.0968 18.4602 62.199 18.7585C62.3042 19.0568 62.459 19.2926 62.6635 19.4659C62.8709 19.6364 63.1266 19.7216 63.4306 19.7216ZM70.236 21.1065C69.7388 21.1065 69.2885 20.9787 68.8851 20.723C68.4846 20.4645 68.1664 20.0852 67.9306 19.5852C67.6976 19.0824 67.5811 18.4659 67.5811 17.7358C67.5811 16.9858 67.7019 16.3622 67.9434 15.8651C68.1848 15.3651 68.5059 14.9915 68.9064 14.7443C69.3098 14.4943 69.7516 14.3693 70.2317 14.3693C70.5982 14.3693 70.9036 14.4318 71.1479 14.5568C71.3951 14.679 71.5939 14.8324 71.7445 15.017C71.8979 15.1989 72.0144 15.3778 72.0939 15.554H72.1493V12.2727H73.9604V21H72.1706V19.9517H72.0939C72.0087 20.1335 71.888 20.3139 71.7317 20.4929C71.5783 20.669 71.378 20.8153 71.1309 20.9318C70.8865 21.0483 70.5882 21.1065 70.236 21.1065ZM70.8113 19.6619C71.1039 19.6619 71.351 19.5824 71.5527 19.4233C71.7573 19.2614 71.9135 19.0355 72.0215 18.7457C72.1323 18.456 72.1877 18.1165 72.1877 17.7273C72.1877 17.3381 72.1337 17 72.0257 16.7131C71.9178 16.4261 71.7615 16.2045 71.557 16.0483C71.3525 15.892 71.1039 15.8139 70.8113 15.8139C70.513 15.8139 70.2615 15.8949 70.057 16.0568C69.8525 16.2187 69.6976 16.4432 69.5925 16.7301C69.4874 17.017 69.4348 17.3494 69.4348 17.7273C69.4348 18.108 69.4874 18.4446 69.5925 18.7372C69.7005 19.027 69.8553 19.2543 70.057 19.419C70.2615 19.581 70.513 19.6619 70.8113 19.6619ZM78.4359 21.1278C77.7626 21.1278 77.1831 20.9915 76.6973 20.7188C76.2143 20.4432 75.8422 20.054 75.5808 19.5511C75.3194 19.0455 75.1887 18.4474 75.1887 17.7571C75.1887 17.0838 75.3194 16.4929 75.5808 15.9844C75.8422 15.4759 76.21 15.0795 76.6845 14.7955C77.1618 14.5114 77.7214 14.3693 78.3635 14.3693C78.7953 14.3693 79.1973 14.4389 79.5694 14.5781C79.9444 14.7145 80.2711 14.9205 80.5495 15.196C80.8308 15.4716 81.0495 15.8182 81.2058 16.2358C81.362 16.6506 81.4402 17.1364 81.4402 17.6932V18.1918H75.9132V17.0668H79.7314C79.7314 16.8054 79.6745 16.5739 79.5609 16.3722C79.4473 16.1705 79.2896 16.0128 79.0879 15.8991C78.889 15.7827 78.6575 15.7244 78.3933 15.7244C78.1177 15.7244 77.8734 15.7884 77.6603 15.9162C77.4501 16.0412 77.2853 16.2102 77.166 16.4233C77.0467 16.6335 76.9856 16.8679 76.9828 17.1264V18.196C76.9828 18.5199 77.0424 18.7997 77.1618 19.0355C77.2839 19.2713 77.4558 19.4531 77.6774 19.581C77.899 19.7088 78.1618 19.7727 78.4657 19.7727C78.6674 19.7727 78.8521 19.7443 79.0197 19.6875C79.1873 19.6307 79.3308 19.5455 79.4501 19.4318C79.5694 19.3182 79.6603 19.179 79.7228 19.0142L81.4018 19.125C81.3166 19.5284 81.1419 19.8807 80.8777 20.1818C80.6163 20.4801 80.2782 20.7131 79.8635 20.8807C79.4515 21.0455 78.9757 21.1278 78.4359 21.1278Z" fill="black"/>
<defs>
<filter id="filter0_d_2_8" x="2.66667" y="4.03061" width="30.7478" height="27.3025" filterUnits="userSpaceOnUse" color-interpolation-filters="sRGB">
<feFlood flood-opacity="0" result="BackgroundImageFix"/>
<feColorMatrix in="SourceAlpha" type="matrix" values="0 0 0 0 0 0 0 0 0 0 0 0 0 0 0 0 0 0 127 0" result="hardAlpha"/>
<feOffset/>
<feGaussianBlur stdDeviation="4.16667"/>
<feColorMatrix type="matrix" values="0 0 0 0 0 0 0 0 0 0 0 0 0 0 0 0 0 0 0.25 0"/>
<feBlend mode="overlay" in2="BackgroundImageFix" result="effect1_dropShadow_2_8"/>
<feBlend mode="normal" in="SourceGraphic" in2="effect1_dropShadow_2_8" result="shape"/>
</filter>
<filter id="filter1_d_2_8" x="12.3501" y="0.66666" width="21.0644" height="30.6667" filterUnits="userSpaceOnUse" color-interpolation-filters="sRGB">
<feFlood flood-opacity="0" result="BackgroundImageFix"/>
<feColorMatrix in="SourceAlpha" type="matrix" values="0 0 0 0 0 0 0 0 0 0 0 0 0 0 0 0 0 0 127 0" result="hardAlpha"/>
<feOffset/>
<feGaussianBlur stdDeviation="4.16667"/>
<feColorMatrix type="matrix" values="0 0 0 0 0 0 0 0 0 0 0 0 0 0 0 0 0 0 0.25 0"/>
<feBlend mode="overlay" in2="BackgroundImageFix" result="effect1_dropShadow_2_8"/>
<feBlend mode="normal" in="SourceGraphic" in2="effect1_dropShadow_2_8" result="shape"/>
</filter>
<linearGradient id="paint0_linear_2_8" x1="18.0363" y1="9.00006" x2="18.0363" y2="23.0001" gradientUnits="userSpaceOnUse">
<stop stop-color="white"/>
<stop offset="1" stop-color="white" stop-opacity="0"/>
</linearGradient>
</defs>
</svg>
