<svg width="91" height="52" viewBox="0 0 91 52" fill="none" xmlns="http://www.w3.org/2000/svg">
<rect y="22" width="91" height="28" fill="#F4B728"/>
<path d="M24.5832 30.4832L21.6836 29.0869C21.5198 29.0081 21.3356 28.9821 21.1564 29.0126C20.9772 29.0431 20.8119 29.1285 20.6835 29.2571L11.1913 37.9116C11.131 37.9666 11.0828 38.0336 11.0499 38.1083C11.0169 38.1829 11 38.2637 11 38.3453C11.0001 38.4269 11.0172 38.5076 11.0502 38.5823C11.0833 38.6569 11.1316 38.7238 11.1919 38.7787L11.9673 39.4836C12.0686 39.5757 12.1989 39.6294 12.3356 39.6355C12.4724 39.6416 12.607 39.5996 12.7161 39.5169L24.1468 30.8452C24.5303 30.5543 25.0811 30.8278 25.0811 31.3092V31.2755C25.0811 31.11 25.0344 30.9478 24.9463 30.8076C24.8582 30.6674 24.7324 30.555 24.5832 30.4832Z" fill="black"/>
<g filter="url(#filter0_d_6_7)">
<path d="M24.5832 41.517L21.6836 42.913C21.5198 42.9919 21.3356 43.0179 21.1564 42.9874C20.9772 42.957 20.812 42.8716 20.6834 42.743L11.1913 34.0884C11.131 34.0334 11.0828 33.9664 11.0499 33.8918C11.0169 33.8171 10.9999 33.7363 11 33.6547C11.0001 33.5731 11.0172 33.4924 11.0502 33.4178C11.0833 33.3431 11.1315 33.2762 11.1919 33.2213L11.9673 32.5165C12.0685 32.4244 12.1989 32.3706 12.3356 32.3645C12.4724 32.3584 12.607 32.4004 12.7161 32.4832L24.1468 41.1547C24.5303 41.4457 25.0811 41.1722 25.0811 40.6909V40.7245C25.0811 40.8901 25.0344 41.0523 24.9463 41.1925C24.8582 41.3326 24.7324 41.4451 24.5832 41.517Z" fill="black"/>
</g>
<g filter="url(#filter1_d_6_7)">
<path d="M21.6837 42.9134C21.5199 42.9921 21.3356 43.0181 21.1564 42.9875C20.9772 42.957 20.812 42.8716 20.6834 42.7431C21.008 43.0676 21.563 42.8377 21.563 42.3787V29.6212C21.563 29.1622 21.008 28.9323 20.6834 29.2569C20.812 29.1284 20.9772 29.043 21.1564 29.0124C21.3356 28.9819 21.5199 29.0079 21.6837 29.0866L24.5827 30.4809C24.732 30.5527 24.858 30.6652 24.9462 30.8054C25.0343 30.9457 25.0811 31.1079 25.0811 31.2736V40.7266C25.0811 40.8923 25.0343 41.0545 24.9462 41.1948C24.858 41.335 24.732 41.4475 24.5827 41.5193L21.6837 42.9134Z" fill="black"/>
</g>
<path style="mix-blend-mode:overlay" opacity="0.25" fill-rule="evenodd" clip-rule="evenodd" d="M20.9792 42.9403C21.0912 42.9839 21.2109 43.004 21.331 42.9994C21.4511 42.9948 21.5689 42.9655 21.6772 42.9134L24.5745 41.5193C24.7237 41.4474 24.8496 41.3349 24.9377 41.1947C25.0259 41.0544 25.0726 40.8922 25.0725 40.7266V31.2736C25.0726 31.1079 25.0259 30.9457 24.9377 30.8054C24.8496 30.6652 24.7237 30.5527 24.5745 30.4809L21.6772 29.0869C21.5135 29.0081 21.3293 28.9822 21.1502 29.0127C20.9711 29.0432 20.8059 29.1286 20.6775 29.2571L15.1309 34.3173L12.7151 32.4835C12.6061 32.4007 12.4716 32.3587 12.3349 32.3648C12.1982 32.3709 12.0679 32.4246 11.9667 32.5167L11.1918 33.2215C11.1315 33.2764 11.0832 33.3434 11.0502 33.418C11.0172 33.4926 11.0001 33.5733 11 33.655C10.9999 33.7366 11.0169 33.8173 11.0498 33.892C11.0827 33.9667 11.1309 34.0337 11.1912 34.0887L13.2863 36.0001L11.1913 37.9115C11.131 37.9665 11.0828 38.0335 11.0499 38.1082C11.017 38.1829 11 38.2636 11.0001 38.3453C11.0001 38.4269 11.0172 38.5076 11.0503 38.5823C11.0833 38.6569 11.1316 38.7238 11.1919 38.7787L11.9668 39.4836C12.068 39.5757 12.1983 39.6294 12.335 39.6355C12.4717 39.6416 12.6062 39.5996 12.7152 39.5169L15.1312 37.6829L20.6777 42.7431C20.7635 42.829 20.8661 42.8962 20.9792 42.9403ZM21.5566 32.8054L17.348 36.0001L21.5566 39.1946V32.8054Z" fill="url(#paint0_linear_6_7)"/>
<path d="M33.4348 32.2727L35.5442 38.9034H35.6252L37.7388 32.2727H39.7843L36.7757 41H34.3979L31.3851 32.2727H33.4348ZM45.5691 34.7827C45.535 34.4389 45.3887 34.1719 45.1301 33.9815C44.8716 33.7912 44.5208 33.696 44.0776 33.696C43.7765 33.696 43.5222 33.7386 43.3148 33.8239C43.1074 33.9062 42.9483 34.0213 42.8375 34.169C42.7296 34.3168 42.6756 34.4844 42.6756 34.6719C42.6699 34.8281 42.7026 34.9645 42.7736 35.081C42.8475 35.1974 42.9483 35.2983 43.0762 35.3835C43.204 35.4659 43.3517 35.5384 43.5194 35.6009C43.687 35.6605 43.8659 35.7116 44.0563 35.7543L44.8404 35.9418C45.2211 36.027 45.5705 36.1406 45.8887 36.2827C46.2069 36.4247 46.4824 36.5994 46.7154 36.8068C46.9483 37.0142 47.1287 37.2585 47.2566 37.5398C47.3873 37.821 47.454 38.1435 47.4569 38.5071C47.454 39.0412 47.3176 39.5043 47.0478 39.8963C46.7807 40.2855 46.3944 40.5881 45.8887 40.804C45.3858 41.017 44.7793 41.1236 44.0691 41.1236C43.3645 41.1236 42.7509 41.0156 42.2282 40.7997C41.7083 40.5838 41.302 40.2642 41.0094 39.8409C40.7196 39.4148 40.5676 38.8878 40.5534 38.2599H42.339C42.3588 38.5526 42.4426 38.7969 42.5904 38.9929C42.7409 39.1861 42.9412 39.3324 43.1912 39.4318C43.4441 39.5284 43.7296 39.5767 44.0478 39.5767C44.3603 39.5767 44.6316 39.5312 44.8617 39.4403C45.0946 39.3494 45.275 39.223 45.4029 39.0611C45.5307 38.8991 45.5946 38.7131 45.5946 38.5028C45.5946 38.3068 45.5364 38.142 45.4199 38.0085C45.3063 37.875 45.1387 37.7614 44.9171 37.6676C44.6983 37.5739 44.4299 37.4886 44.1117 37.4119L43.1614 37.1733C42.4256 36.9943 41.8446 36.7145 41.4185 36.3338C40.9924 35.9531 40.7807 35.4403 40.7836 34.7955C40.7807 34.267 40.9213 33.8054 41.2054 33.4105C41.4924 33.0156 41.8858 32.7074 42.3858 32.4858C42.8858 32.2642 43.454 32.1534 44.0904 32.1534C44.7381 32.1534 45.3034 32.2642 45.7864 32.4858C46.2722 32.7074 46.65 33.0156 46.9199 33.4105C47.1898 33.8054 47.329 34.2628 47.3375 34.7827H45.5691ZM59.1756 35.3281H57.3091C57.275 35.0866 57.2054 34.8722 57.1003 34.6847C56.9952 34.4943 56.8603 34.3324 56.6955 34.1989C56.5307 34.0653 56.3404 33.9631 56.1245 33.892C55.9114 33.821 55.6799 33.7855 55.4299 33.7855C54.9782 33.7855 54.5847 33.8977 54.2495 34.1222C53.9142 34.3437 53.6543 34.6676 53.4696 35.0938C53.285 35.517 53.1926 36.0312 53.1926 36.6364C53.1926 37.2585 53.285 37.7812 53.4696 38.2045C53.6571 38.6278 53.9185 38.9474 54.2537 39.1634C54.589 39.3793 54.9767 39.4872 55.4171 39.4872C55.6642 39.4872 55.8929 39.4545 56.1032 39.3892C56.3162 39.3239 56.5051 39.2287 56.6699 39.1037C56.8347 38.9759 56.9711 38.821 57.079 38.6392C57.1898 38.4574 57.2665 38.25 57.3091 38.017L59.1756 38.0256C59.1273 38.4261 59.0066 38.8125 58.8134 39.1847C58.623 39.554 58.3659 39.8849 58.0421 40.1776C57.7211 40.4673 57.3375 40.6974 56.8915 40.8679C56.4483 41.0355 55.9469 41.1193 55.3873 41.1193C54.6088 41.1193 53.9128 40.9432 53.2992 40.5909C52.6884 40.2386 52.2054 39.7287 51.8503 39.0611C51.498 38.3935 51.3219 37.5852 51.3219 36.6364C51.3219 35.6847 51.5009 34.875 51.8588 34.2074C52.2168 33.5398 52.7026 33.0312 53.3162 32.6818C53.9299 32.3295 54.6202 32.1534 55.3873 32.1534C55.8929 32.1534 56.3617 32.2244 56.7935 32.3665C57.2282 32.5085 57.6131 32.7159 57.9483 32.9886C58.2836 33.2585 58.5563 33.5895 58.7665 33.9815C58.9796 34.3736 59.1159 34.8224 59.1756 35.3281ZM63.4221 41.1278C62.7601 41.1278 62.1877 40.9872 61.7047 40.706C61.2246 40.4219 60.8539 40.027 60.5925 39.5213C60.3311 39.0128 60.2005 38.4233 60.2005 37.7528C60.2005 37.0767 60.3311 36.4858 60.5925 35.9801C60.8539 35.4716 61.2246 35.0767 61.7047 34.7955C62.1877 34.5114 62.7601 34.3693 63.4221 34.3693C64.084 34.3693 64.655 34.5114 65.1351 34.7955C65.6181 35.0767 65.9902 35.4716 66.2516 35.9801C66.513 36.4858 66.6436 37.0767 66.6436 37.7528C66.6436 38.4233 66.513 39.0128 66.2516 39.5213C65.9902 40.027 65.6181 40.4219 65.1351 40.706C64.655 40.9872 64.084 41.1278 63.4221 41.1278ZM63.4306 39.7216C63.7317 39.7216 63.9831 39.6364 64.1848 39.4659C64.3865 39.2926 64.5385 39.0568 64.6408 38.7585C64.7459 38.4602 64.7985 38.1207 64.7985 37.7401C64.7985 37.3594 64.7459 37.0199 64.6408 36.7216C64.5385 36.4233 64.3865 36.1875 64.1848 36.0142C63.9831 35.8409 63.7317 35.7543 63.4306 35.7543C63.1266 35.7543 62.8709 35.8409 62.6635 36.0142C62.459 36.1875 62.3042 36.4233 62.199 36.7216C62.0968 37.0199 62.0456 37.3594 62.0456 37.7401C62.0456 38.1207 62.0968 38.4602 62.199 38.7585C62.3042 39.0568 62.459 39.2926 62.6635 39.4659C62.8709 39.6364 63.1266 39.7216 63.4306 39.7216ZM70.236 41.1065C69.7388 41.1065 69.2885 40.9787 68.8851 40.723C68.4846 40.4645 68.1664 40.0852 67.9306 39.5852C67.6976 39.0824 67.5811 38.4659 67.5811 37.7358C67.5811 36.9858 67.7019 36.3622 67.9434 35.8651C68.1848 35.3651 68.5059 34.9915 68.9064 34.7443C69.3098 34.4943 69.7516 34.3693 70.2317 34.3693C70.5982 34.3693 70.9036 34.4318 71.1479 34.5568C71.3951 34.679 71.5939 34.8324 71.7445 35.017C71.8979 35.1989 72.0144 35.3778 72.0939 35.554H72.1493V32.2727H73.9604V41H72.1706V39.9517H72.0939C72.0087 40.1335 71.888 40.3139 71.7317 40.4929C71.5783 40.669 71.378 40.8153 71.1309 40.9318C70.8865 41.0483 70.5882 41.1065 70.236 41.1065ZM70.8113 39.6619C71.1039 39.6619 71.351 39.5824 71.5527 39.4233C71.7573 39.2614 71.9135 39.0355 72.0215 38.7457C72.1323 38.456 72.1877 38.1165 72.1877 37.7273C72.1877 37.3381 72.1337 37 72.0257 36.7131C71.9178 36.4261 71.7615 36.2045 71.557 36.0483C71.3525 35.892 71.1039 35.8139 70.8113 35.8139C70.513 35.8139 70.2615 35.8949 70.057 36.0568C69.8525 36.2187 69.6976 36.4432 69.5925 36.7301C69.4874 37.017 69.4348 37.3494 69.4348 37.7273C69.4348 38.108 69.4874 38.4446 69.5925 38.7372C69.7005 39.027 69.8553 39.2543 70.057 39.419C70.2615 39.581 70.513 39.6619 70.8113 39.6619ZM78.4359 41.1278C77.7626 41.1278 77.1831 40.9915 76.6973 40.7188C76.2143 40.4432 75.8422 40.054 75.5808 39.5511C75.3194 39.0455 75.1887 38.4474 75.1887 37.7571C75.1887 37.0838 75.3194 36.4929 75.5808 35.9844C75.8422 35.4759 76.21 35.0795 76.6845 34.7955C77.1618 34.5114 77.7214 34.3693 78.3635 34.3693C78.7953 34.3693 79.1973 34.4389 79.5694 34.5781C79.9444 34.7145 80.2711 34.9205 80.5495 35.196C80.8308 35.4716 81.0495 35.8182 81.2058 36.2358C81.362 36.6506 81.4402 37.1364 81.4402 37.6932V38.1918H75.9132V37.0668H79.7314C79.7314 36.8054 79.6745 36.5739 79.5609 36.3722C79.4473 36.1705 79.2896 36.0128 79.0879 35.8991C78.889 35.7827 78.6575 35.7244 78.3933 35.7244C78.1177 35.7244 77.8734 35.7884 77.6603 35.9162C77.4501 36.0412 77.2853 36.2102 77.166 36.4233C77.0467 36.6335 76.9856 36.8679 76.9828 37.1264V38.196C76.9828 38.5199 77.0424 38.7997 77.1618 39.0355C77.2839 39.2713 77.4558 39.4531 77.6774 39.581C77.899 39.7088 78.1618 39.7727 78.4657 39.7727C78.6674 39.7727 78.8521 39.7443 79.0197 39.6875C79.1873 39.6307 79.3308 39.5455 79.4501 39.4318C79.5694 39.3182 79.6603 39.179 79.7228 39.0142L81.4018 39.125C81.3166 39.5284 81.1419 39.8807 80.8777 40.1818C80.6163 40.4801 80.2782 40.7131 79.8635 40.8807C79.4515 41.0455 78.9757 41.1278 78.4359 41.1278Z" fill="black"/>
<defs>
<filter id="filter0_d_6_7" x="2.66667" y="24.0306" width="30.7478" height="27.3025" filterUnits="userSpaceOnUse" color-interpolation-filters="sRGB">
<feFlood flood-opacity="0" result="BackgroundImageFix"/>
<feColorMatrix in="SourceAlpha" type="matrix" values="0 0 0 0 0 0 0 0 0 0 0 0 0 0 0 0 0 0 127 0" result="hardAlpha"/>
<feOffset/>
<feGaussianBlur stdDeviation="4.16667"/>
<feColorMatrix type="matrix" values="0 0 0 0 0 0 0 0 0 0 0 0 0 0 0 0 0 0 0.25 0"/>
<feBlend mode="overlay" in2="BackgroundImageFix" result="effect1_dropShadow_6_7"/>
<feBlend mode="normal" in="SourceGraphic" in2="effect1_dropShadow_6_7" result="shape"/>
</filter>
<filter id="filter1_d_6_7" x="12.3501" y="20.6667" width="21.0644" height="30.6667" filterUnits="userSpaceOnUse" color-interpolation-filters="sRGB">
<feFlood flood-opacity="0" result="BackgroundImageFix"/>
<feColorMatrix in="SourceAlpha" type="matrix" values="0 0 0 0 0 0 0 0 0 0 0 0 0 0 0 0 0 0 127 0" result="hardAlpha"/>
<feOffset/>
<feGaussianBlur stdDeviation="4.16667"/>
<feColorMatrix type="matrix" values="0 0 0 0 0 0 0 0 0 0 0 0 0 0 0 0 0 0 0.25 0"/>
<feBlend mode="overlay" in2="BackgroundImageFix" result="effect1_dropShadow_6_7"/>
<feBlend mode="normal" in="SourceGraphic" in2="effect1_dropShadow_6_7" result="shape"/>
</filter>
<linearGradient id="paint0_linear_6_7" x1="18.0363" y1="29.0001" x2="18.0363" y2="43.0001" gradientUnits="userSpaceOnUse">
<stop stop-color="white"/>
<stop offset="1" stop-color="white" stop-opacity="0"/>
</linearGradient>
</defs>
</svg>
